# xmcd
#
# Track frame offsets:
#	150
#	27125
#	45506
#	60049
#	80710
#	95619
#	106325
#	120538
#	149376
#	170498
#
# Disc length: 2593 seconds
# Revision: 0
# Processed by: cddbd v1.5.2PL0 Copyright (c) Steve Scherf et al.
# Submitted via: dBpowerAMP V12.0
#
DISCID=790a1f0a
DTITLE=John Mayall - New Year New Band New Company [Blue Thumb] (L)
DYEAR=1993
DGENRE=Blues
TTITLE0=Sitting On The Outside
TTITLE1=Can't Get Home
TTITLE2=Step In The Sun
TTITLE3=To Match The Wind
TTITLE4=Sweet Scorpio
TTITLE5=Driving On
TTITLE6=Taxman Blues
TTITLE7=So Much To Do
TTITLE8=My Train Time
TTITLE9=Respectfully Yours
EXTD=
EXTT0=
EXTT1=
EXTT2=
EXTT3=
EXTT4=
EXTT5=
EXTT6=
EXTT7=
EXTT8=
EXTT9=
PLAYORDER=
